<?xml version="1.0" encoding="UTF-8" standalone="no"?>
<!-- Created with Inkscape (http://www.inkscape.org/) -->

<svg
   xmlns:dc="http://purl.org/dc/elements/1.1/"
   xmlns:cc="http://creativecommons.org/ns#"
   xmlns:rdf="http://www.w3.org/1999/02/22-rdf-syntax-ns#"
   xmlns:svg="http://www.w3.org/2000/svg"
   xmlns="http://www.w3.org/2000/svg"
   xmlns:xlink="http://www.w3.org/1999/xlink"
   xmlns:sodipodi="http://sodipodi.sourceforge.net/DTD/sodipodi-0.dtd"
   xmlns:inkscape="http://www.inkscape.org/namespaces/inkscape"
   id="svg2"
   version="1.1"
   inkscape:version="0.48.4 r9939"
   width="743.75"
   height="1052.5"
   xml:space="preserve"
   sodipodi:docname="traffic_light_yellow.svg"><metadata
     id="metadata8"><rdf:RDF><cc:Work
         rdf:about=""><dc:format>image/svg+xml</dc:format><dc:type
           rdf:resource="http://purl.org/dc/dcmitype/StillImage" /><dc:title /></cc:Work></rdf:RDF></metadata><defs
     id="defs6"><clipPath
       clipPathUnits="userSpaceOnUse"
       id="clipPath18"><path
         d="m 76,41 443,0 0,759.8428 -443,0 L 76,41 z"
         id="path20" /></clipPath><clipPath
       clipPathUnits="userSpaceOnUse"
       id="clipPath28"><path
         d="m 76,41 443,0 0,760 -443,0 0,-760 z"
         id="path30" /></clipPath><radialGradient
       fx="0"
       fy="0"
       cx="0"
       cy="0"
       r="1"
       gradientUnits="userSpaceOnUse"
       gradientTransform="matrix(169.2837,0,0,-169.2837,298.1838,745.9364)"
       spreadMethod="pad"
       id="radialGradient46"><stop
         style="stop-opacity:1;stop-color:#e7e9e6"
         offset="0"
         id="stop48" /><stop
         style="stop-opacity:1;stop-color:#110f0e"
         offset="1"
         id="stop50" /></radialGradient><radialGradient
       fx="0"
       fy="0"
       cx="0"
       cy="0"
       r="1"
       gradientUnits="userSpaceOnUse"
       gradientTransform="matrix(67.73202,0,0,-67.73202,301.8266,574.52)"
       spreadMethod="pad"
       id="radialGradient56"><stop
         style="stop-color:#500003;stop-opacity:1;"
         offset="0"
         id="stop58" /><stop
         style="stop-color:#250303;stop-opacity:1;"
         offset="1"
         id="stop60" /></radialGradient><clipPath
       clipPathUnits="userSpaceOnUse"
       id="clipPath68"><path
         d="m 298.9322,738.7074 c 27.6448,0 50.0563,-22.411 50.0563,-50.0564 0,-27.6453 -22.4115,-50.0557 -50.0563,-50.0557 -27.6448,0 -50.0558,22.4104 -50.0558,50.0557 0,27.6454 22.411,50.0564 50.0558,50.0564"
         clip-rule="evenodd"
         id="path70" /></clipPath><clipPath
       clipPathUnits="userSpaceOnUse"
       id="clipPath74"><path
         d="m 248.8764,638.5755 100.1313,0 0,100.1319 -100.1313,0 0,-100.1319 z"
         id="path76" /></clipPath><clipPath
       clipPathUnits="userSpaceOnUse"
       id="clipPath86"><path
         d="m 76,41 443,0 0,760 -443,0 0,-760 z"
         id="path88" /></clipPath><radialGradient
       fx="0"
       fy="0"
       cx="0"
       cy="0"
       r="1"
       gradientUnits="userSpaceOnUse"
       gradientTransform="matrix(169.2843,0,0,-169.2843,298.1838,535.8252)"
       spreadMethod="pad"
       id="radialGradient90"><stop
         style="stop-opacity:1;stop-color:#e7e9e6"
         offset="0"
         id="stop92" /><stop
         style="stop-opacity:1;stop-color:#110f0e"
         offset="1"
         id="stop94" /></radialGradient><radialGradient
       fx="0"
       fy="0"
       cx="0"
       cy="0"
       r="1"
       gradientUnits="userSpaceOnUse"
       gradientTransform="matrix(67.73202,0,0,-67.73202,301.8266,364.4088)"
       spreadMethod="pad"
       id="radialGradient100"><stop
         style="stop-opacity:1;stop-color:#eeed0a"
         offset="0"
         id="stop102" /><stop
         style="stop-opacity:1;stop-color:#cca717"
         offset="1"
         id="stop104" /></radialGradient><clipPath
       clipPathUnits="userSpaceOnUse"
       id="clipPath112"><path
         d="m 298.9322,528.5956 c 27.6448,0 50.0563,-22.411 50.0563,-50.0563 0,-27.6448 -22.4115,-50.0558 -50.0563,-50.0558 -27.6448,0 -50.0558,22.411 -50.0558,50.0558 0,27.6453 22.411,50.0563 50.0558,50.0563"
         clip-rule="evenodd"
         id="path114" /></clipPath><clipPath
       clipPathUnits="userSpaceOnUse"
       id="clipPath118"><path
         d="m 248.8764,428.4917 100.1313,0 0,100.1039 -100.1313,0 0,-100.1039 z"
         id="path120" /></clipPath><clipPath
       clipPathUnits="userSpaceOnUse"
       id="clipPath130"><path
         d="m 76,41 443,0 0,760 -443,0 0,-760 z"
         id="path132" /></clipPath><radialGradient
       fx="0"
       fy="0"
       cx="0"
       cy="0"
       r="1"
       gradientUnits="userSpaceOnUse"
       gradientTransform="matrix(169.2837,0,0,-169.2837,298.1838,325.6954)"
       spreadMethod="pad"
       id="radialGradient134"><stop
         style="stop-opacity:1;stop-color:#e7e9e6"
         offset="0"
         id="stop136" /><stop
         style="stop-opacity:1;stop-color:#110f0e"
         offset="1"
         id="stop138" /></radialGradient><radialGradient
       fx="0"
       fy="0"
       cx="0"
       cy="0"
       r="1"
       gradientUnits="userSpaceOnUse"
       gradientTransform="matrix(67.73202,0,0,-67.73202,301.8266,154.2779)"
       spreadMethod="pad"
       id="radialGradient144"><stop
         style="stop-color:#0f5000;stop-opacity:1;"
         offset="0"
         id="stop146" /><stop
         style="stop-color:#042503;stop-opacity:1;"
         offset="1"
         id="stop148" /></radialGradient><clipPath
       clipPathUnits="userSpaceOnUse"
       id="clipPath156"><path
         d="m 298.9322,318.4658 c 27.6448,0 50.0563,-22.4104 50.0563,-50.0557 0,-27.6454 -22.4115,-50.0535 -50.0563,-50.0535 -27.6448,0 -50.0558,22.4081 -50.0558,50.0535 0,27.6453 22.411,50.0557 50.0558,50.0557"
         clip-rule="evenodd"
         id="path158" /></clipPath><clipPath
       clipPathUnits="userSpaceOnUse"
       id="clipPath162"><path
         d="m 248.8764,218.3333 100.1313,0 0,100.1325 -100.1313,0 0,-100.1325 z"
         id="path164" /></clipPath><radialGradient
       inkscape:collect="always"
       xlink:href="#radialGradient46"
       id="radialGradient3145"
       gradientUnits="userSpaceOnUse"
       gradientTransform="matrix(169.2837,0,0,-169.2837,298.1838,745.9364)"
       spreadMethod="pad"
       cx="0"
       cy="0"
       fx="0"
       fy="0"
       r="1" /><radialGradient
       inkscape:collect="always"
       xlink:href="#radialGradient56"
       id="radialGradient3147"
       gradientUnits="userSpaceOnUse"
       gradientTransform="matrix(67.73202,0,0,-67.73202,301.8266,574.52)"
       spreadMethod="pad"
       cx="0"
       cy="0"
       fx="0"
       fy="0"
       r="1" /><radialGradient
       inkscape:collect="always"
       xlink:href="#radialGradient46"
       id="radialGradient3160"
       gradientUnits="userSpaceOnUse"
       gradientTransform="matrix(169.2837,0,0,-169.2837,298.1838,745.9364)"
       spreadMethod="pad"
       cx="0"
       cy="0"
       fx="0"
       fy="0"
       r="1" /><radialGradient
       inkscape:collect="always"
       xlink:href="#radialGradient56"
       id="radialGradient3162"
       gradientUnits="userSpaceOnUse"
       gradientTransform="matrix(67.73202,0,0,-67.73202,301.8266,574.52)"
       spreadMethod="pad"
       cx="0"
       cy="0"
       fx="0"
       fy="0"
       r="1" /><radialGradient
       inkscape:collect="always"
       xlink:href="#radialGradient56"
       id="radialGradient3165"
       gradientUnits="userSpaceOnUse"
       gradientTransform="matrix(67.73202,0,0,-67.73202,301.8266,574.52)"
       spreadMethod="pad"
       cx="0"
       cy="0"
       fx="0"
       fy="0"
       r="1" /><radialGradient
       inkscape:collect="always"
       xlink:href="#radialGradient46"
       id="radialGradient3169"
       gradientUnits="userSpaceOnUse"
       gradientTransform="matrix(169.2837,0,0,-169.2837,298.1838,745.9364)"
       spreadMethod="pad"
       cx="0"
       cy="0"
       fx="0"
       fy="0"
       r="1" /><radialGradient
       inkscape:collect="always"
       xlink:href="#radialGradient134"
       id="radialGradient3960"
       gradientUnits="userSpaceOnUse"
       gradientTransform="matrix(169.2837,0,0,-169.2837,298.1838,325.6954)"
       spreadMethod="pad"
       cx="0"
       cy="0"
       fx="0"
       fy="0"
       r="1" /><radialGradient
       inkscape:collect="always"
       xlink:href="#radialGradient144"
       id="radialGradient3962"
       gradientUnits="userSpaceOnUse"
       gradientTransform="matrix(67.73202,0,0,-67.73202,301.8266,154.2779)"
       spreadMethod="pad"
       cx="0"
       cy="0"
       fx="0"
       fy="0"
       r="1" /><radialGradient
       inkscape:collect="always"
       xlink:href="#radialGradient144"
       id="radialGradient3965"
       gradientUnits="userSpaceOnUse"
       gradientTransform="matrix(67.73202,0,0,-67.73202,301.8266,154.2779)"
       spreadMethod="pad"
       cx="0"
       cy="0"
       fx="0"
       fy="0"
       r="1" /><radialGradient
       inkscape:collect="always"
       xlink:href="#radialGradient134"
       id="radialGradient3969"
       gradientUnits="userSpaceOnUse"
       gradientTransform="matrix(169.2837,0,0,-169.2837,298.1838,325.6954)"
       spreadMethod="pad"
       cx="0"
       cy="0"
       fx="0"
       fy="0"
       r="1" /><radialGradient
       inkscape:collect="always"
       xlink:href="#radialGradient90"
       id="radialGradient3975"
       gradientUnits="userSpaceOnUse"
       gradientTransform="matrix(169.2843,0,0,-169.2843,298.1838,535.8252)"
       spreadMethod="pad"
       cx="0"
       cy="0"
       fx="0"
       fy="0"
       r="1" /><radialGradient
       inkscape:collect="always"
       xlink:href="#radialGradient100"
       id="radialGradient3977"
       gradientUnits="userSpaceOnUse"
       gradientTransform="matrix(67.73202,0,0,-67.73202,301.8266,364.4088)"
       spreadMethod="pad"
       cx="0"
       cy="0"
       fx="0"
       fy="0"
       r="1" /><radialGradient
       inkscape:collect="always"
       xlink:href="#radialGradient100"
       id="radialGradient3980"
       gradientUnits="userSpaceOnUse"
       gradientTransform="matrix(67.73202,0,0,-67.73202,301.8266,364.4088)"
       spreadMethod="pad"
       cx="0"
       cy="0"
       fx="0"
       fy="0"
       r="1" /><radialGradient
       inkscape:collect="always"
       xlink:href="#radialGradient90"
       id="radialGradient3984"
       gradientUnits="userSpaceOnUse"
       gradientTransform="matrix(169.2843,0,0,-169.2843,298.1838,535.8252)"
       spreadMethod="pad"
       cx="0"
       cy="0"
       fx="0"
       fy="0"
       r="1" /></defs><sodipodi:namedview
     pagecolor="#ffffff"
     bordercolor="#666666"
     borderopacity="1"
     objecttolerance="10"
     gridtolerance="10"
     guidetolerance="10"
     inkscape:pageopacity="0"
     inkscape:pageshadow="2"
     inkscape:window-width="1440"
     inkscape:window-height="838"
     id="namedview4"
     showgrid="false"
     inkscape:zoom="0.44845606"
     inkscape:cx="-262.23429"
     inkscape:cy="474.17933"
     inkscape:window-x="-8"
     inkscape:window-y="-8"
     inkscape:window-maximized="1"
     inkscape:current-layer="g10" /><g
     id="g10"
     inkscape:groupmode="layer"
     inkscape:label="traffic_light_05"
     transform="matrix(1.25,0,0,-1.25,0,1052.5)"><g
       id="g12" /><g
       id="g14"><g
         id="g16"
         clip-path="url(#clipPath18)"><path
           d="m 216.3775,767.8704 -35.7805,0.004 -1.011,-34.3182 L 76,732.6664 c 7.34026,-13.8407 46.8509,-71.4854 49.2037,-80.5519 4.362,-16.8236 -8.9336,-76.5986 54.5348,-80.1045 l -0.007,-44.7073 -103.47244,-1.0174 c 6.72643,-14.3619 46.17244,-71.0375 48.78094,-80.1884 6.2262,-21.856 -9.3343,-73.2215 53.9676,-80.6893 l 0.4367,-44.9308 -102.60694,-0.4904 12.4902,-21.7529 c 9.12117,-14.772 34.67984,-50.6672 36.63554,-63.4976 4.0323,-26.4777 -3.2899,-30.2515 11.8158,-54.8626 12.4121,-20.2259 22.0621,-13.3131 41.4837,-22.107 l 0.5358,-33.1547 c 51.259,0.0175 36.8207,4.1524 45.4381,-12.0901 7.2087,-13.58679 23.9823,-16.59184 38.3005,-19.69008 L 263.5546,41.36107 331.1544,41 l 0,52.18667 c 7.6664,1.19969 21.7075,5.54421 27.3117,8.98603 31.5071,19.3757 -22.3673,22.4506 56.8311,22.4331 l 0.1205,33.1605 c 21.1647,9.6034 27.816,2.9119 41.1961,22.7709 14.5559,21.6003 4.6037,34.4533 10.9533,56.0827 3.1839,10.852 40.4192,56.4479 51.9648,82.9676 l -103.0356,0.4711 -1.2562,45.7369 c 62.716,5.0398 46.1445,61.2035 52.8273,79.2723 1.8531,5.0102 8.2453,11.7104 12.5828,18.3577 9.1852,14.0766 36.1778,52.684 38.0233,62.8825 l -103.3909,0.1328 0.003,45.5692 c 62.6986,4.1779 46.3542,60.9869 52.5367,79.1471 1.4734,4.3259 21.3027,32.0621 26.1795,39.3022 7.8761,11.7063 21.8706,30.9836 25.0119,42.0324 l -103.742,0.414 -0.4689,34.9798 c -59.0884,-0.0308 -36.2196,-1.9637 -50.1186,14.9048 -20.6749,25.0846 -109.9641,22.0918 -134.064,2.8903 -10.8712,-8.6605 -3.3539,-12.6067 -14.2432,-17.8102"
           style="fill:#100f0d;fill-opacity:1;fill-rule:evenodd;stroke:none"
           id="path22" /></g></g><path
       d="m 116.8595,472.5565 62.2221,-0.5165 0.4508,38.1625 -85.12933,0.4635 c 5.94193,-7.7409 5.51567,-10.7955 10.54153,-18.6121 5.3451,-8.3152 7.5069,-9.3367 11.9149,-19.4974"
       style="fill:#acaca9;fill-opacity:1;fill-rule:evenodd;stroke:none"
       id="path32"
       inkscape:connector-curvature="0" /><path
       d="m 415.3508,472.8908 59.457,-1.0634 c 8.1492,9.5609 19.8619,26.6 23.3754,38.8002 l -82.2256,0.0192 -0.6068,-37.756"
       style="fill:#acaca9;fill-opacity:1;fill-rule:evenodd;stroke:none"
       id="path34"
       inkscape:connector-curvature="0" /><path
       d="m 415.4038,679.0791 59.404,-0.8206 c 4.5961,5.1774 9.1253,12.3179 13.2531,18.6081 4.0953,6.2448 7.4783,12.9643 10.9493,20.1048 l -83.4649,-0.099 -0.1415,-37.7933"
       style="fill:#acaca9;fill-opacity:1;fill-rule:evenodd;stroke:none"
       id="path36"
       inkscape:connector-curvature="0" /><path
       d="m 117.2217,678.7675 61.8634,-0.3232 0.6499,38.0029 -85.34999,-0.1822 22.83669,-37.4975"
       style="fill:#acaca9;fill-opacity:1;fill-rule:evenodd;stroke:none"
       id="path38"
       inkscape:connector-curvature="0" /><path
       d="m 415.3147,268.0094 59.4931,-0.4141 c 9.0402,8.4934 20.2876,22.7756 22.9782,36.8067 l -81.5518,-0.0763 -0.9195,-36.3163"
       style="fill:#acaca9;fill-opacity:1;fill-rule:evenodd;stroke:none"
       id="path40"
       inkscape:connector-curvature="0" /><path
       d="m 117.8745,268.0094 61.6084,-0.1287 -0.014,36.2098 -84.77115,0.2585 23.17675,-36.3396"
       style="fill:#acaca9;fill-opacity:1;fill-rule:evenodd;stroke:none"
       id="path42"
       inkscape:connector-curvature="0" /><path
       d="m 270.27,48.2564 17.7211,-0.07571 c -0.0286,13.00444 2.4564,31.15709 -2.4984,41.38942 L 270.1564,91.73073 270.27,48.2564"
       style="fill:#acaca9;fill-opacity:1;fill-rule:evenodd;stroke:none"
       id="path44"
       inkscape:connector-curvature="0" /><path
       d="m 300.1062,557.5502 c 52.9386,0 96.1153,43.1767 96.1153,96.1152 0,52.9391 -43.1767,96.1158 -96.1153,96.1158 -52.9379,0 -96.1152,-43.1767 -96.1152,-96.1158 0,-52.9385 43.1773,-96.1152 96.1152,-96.1152"
       style="fill:url(#radialGradient3169);fill-opacity:1;fill-rule:evenodd;stroke:none"
       id="path52"
       inkscape:connector-curvature="0" /><path
       d="m 300.1062,562.8795 c 50.0034,0 90.7866,40.7826 90.7866,90.7859 0,50.0039 -40.7832,90.7865 -90.7866,90.7865 -50.0027,0 -90.7859,-40.7826 -90.7859,-90.7865 0,-50.0033 40.7832,-90.7859 90.7859,-90.7859"
       style="fill:#1b1919;fill-opacity:1;fill-rule:evenodd;stroke:none"
       id="path54"
       inkscape:connector-curvature="0" /><path
       d="m 300.1062,567.6375 c 47.3827,0 86.0285,38.6453 86.0285,86.0279 0,47.3832 -38.6458,86.0279 -86.0285,86.0279 -47.382,0 -86.0279,-38.6447 -86.0279,-86.0279 0,-47.3826 38.6459,-86.0279 86.0279,-86.0279"
       style="fill:url(#radialGradient3165);fill-opacity:1;fill-rule:evenodd;stroke:none"
       id="path62"
       inkscape:connector-curvature="0" /><path
       d="m 300.1062,347.439 c 52.9386,0 96.1153,43.1767 96.1153,96.1152 0,52.9386 -43.1767,96.1153 -96.1153,96.1153 -52.9379,0 -96.1152,-43.1767 -96.1152,-96.1153 0,-52.9385 43.1773,-96.1152 96.1152,-96.1152"
       style="fill:url(#radialGradient3984);fill-opacity:1;fill-rule:evenodd;stroke:none"
       id="path96"
       inkscape:connector-curvature="0" /><path
       d="m 300.1062,352.7677 c 50.0034,0 90.7866,40.7832 90.7866,90.7865 0,50.0034 -40.7832,90.786 -90.7866,90.786 -50.0027,0 -90.7859,-40.7826 -90.7859,-90.786 0,-50.0033 40.7832,-90.7865 90.7859,-90.7865"
       style="fill:#1b1919;fill-opacity:1;fill-rule:evenodd;stroke:none"
       id="path98"
       inkscape:connector-curvature="0" /><path
       d="m 300.1062,357.5263 c 47.3827,0 86.0285,38.6453 86.0285,86.0279 0,47.3821 -38.6458,86.028 -86.0285,86.028 -47.382,0 -86.0279,-38.6459 -86.0279,-86.028 0,-47.3826 38.6459,-86.0279 86.0279,-86.0279"
       style="fill:url(#radialGradient3980);fill-opacity:1;fill-rule:evenodd;stroke:none"
       id="path106"
       inkscape:connector-curvature="0" /><path
       d="m 300.1062,137.3074 c 52.9386,0 96.1153,43.1774 96.1153,96.1176 0,52.9379 -43.1767,96.1147 -96.1153,96.1147 -52.9379,0 -96.1152,-43.1768 -96.1152,-96.1147 0,-52.9402 43.1773,-96.1176 96.1152,-96.1176"
       style="fill:url(#radialGradient3969);fill-opacity:1;fill-rule:evenodd;stroke:none"
       id="path140"
       inkscape:connector-curvature="0" /><path
       d="m 300.1062,142.6362 c 50.0034,0 90.7866,40.7837 90.7866,90.7888 0,50.0028 -40.7832,90.7859 -90.7866,90.7859 -50.0027,0 -90.7859,-40.7831 -90.7859,-90.7859 0,-50.0051 40.7832,-90.7888 90.7859,-90.7888"
       style="fill:#1b1919;fill-opacity:1;fill-rule:evenodd;stroke:none"
       id="path142"
       inkscape:connector-curvature="0" /><path
       d="m 300.1062,147.3942 c 47.3827,0 86.0285,38.6464 86.0285,86.0308 0,47.3821 -38.6458,86.0274 -86.0285,86.0274 -47.382,0 -86.0279,-38.6453 -86.0279,-86.0274 0,-47.3844 38.6459,-86.0308 86.0279,-86.0308"
       style="fill:url(#radialGradient3965);fill-opacity:1;fill-rule:evenodd;stroke:none"
       id="path150"
       inkscape:connector-curvature="0" /></g></svg>